<svg xmlns="http://www.w3.org/2000/svg" width="512" height="512" viewBox="0 0 512 512"><rect width="512" height="512" rx="112" fill="#42001C"/><g transform="translate(-1198 -444) scale(1.72)"><path fill="#FF90C1" d="M 806.597656 334.363281 L 908.238281 351.996094 C 928.640625 355.535156 942.316406 374.945312 938.773438 395.351562 L 929.453125 449.082031 C 925.914062 469.488281 906.5 483.160156 886.09375 479.617188 L 784.457031 461.984375 C 764.050781 458.445312 750.378906 439.035156 753.917969 418.628906 L 763.242188 364.898438 C 766.78125 344.492188 786.195312 330.820312 806.597656 334.363281 Z M 806.597656 334.363281 "/><g fill="#FFF0EE"><path d="M 808.027344 367.660156 C 814.667969 368.089844 819.707031 373.824219 819.277344 380.46875 L 818.027344 399.765625 C 817.597656 406.410156 811.859375 411.449219 805.214844 411.019531 C 798.570312 410.585938 793.535156 404.851562 793.964844 398.207031 L 795.214844 378.910156 C 795.644531 372.265625 801.382812 367.226562 808.027344 367.660156 Z M 808.027344 367.660156 "/><path d="M 858.355469 370.917969 C 865 371.351562 870.035156 377.085938 869.605469 383.730469 L 868.355469 403.027344 C 867.925781 409.671875 862.1875 414.710938 855.542969 414.277344 C 848.898438 413.847656 843.863281 408.113281 844.292969 401.46875 L 845.542969 382.171875 C 845.972656 375.527344 851.710938 370.488281 858.355469 370.917969 Z M 858.355469 370.917969 "/></g><path fill="#FF90C1" d="M777.234375 396.898438H883.042969V426.695312H777.234375Z"/></g></svg>
